<svg id="visual" viewBox="0 0 900 450" width="900" height="450" xmlns="http://www.w3.org/2000/svg" xmlns:xlink="http://www.w3.org/1999/xlink" version="1.1"><path d="M0 318L15 318.7C30 319.3 60 320.7 90 300.5C120 280.3 150 238.7 180 232.2C210 225.7 240 254.3 270 269C300 283.7 330 284.3 360 267.5C390 250.7 420 216.3 450 202.3C480 188.3 510 194.7 540 207.5C570 220.3 600 239.7 630 246.2C660 252.7 690 246.3 720 233.8C750 221.3 780 202.7 810 205.3C840 208 870 232 885 244L900 256" fill="none" stroke-linecap="round" stroke-linejoin="miter" stroke="#002147" stroke-width="40"></path></svg>